<svg width="291" height="267" viewBox="0 0 291 267" fill="none" xmlns="http://www.w3.org/2000/svg">
<circle cx="63" cy="204" r="63" fill="#F9EDD5"/>
<path d="M97.4485 198.422C97.5099 195.259 94.9505 192.679 91.7871 192.679H31.7846C28.6315 192.679 26.0106 195.156 26.0004 198.309C25.9083 226.473 35.7978 240.089 54.2561 241.184H71.9364C90.0877 237.724 97.0288 221.712 97.4485 198.422Z" fill="#6B4626"/>
<path d="M54.3585 237.796C37.4665 236.741 29.3071 223.832 29.389 198.32C29.389 197.081 30.464 196.067 31.7846 196.067H91.7871C92.4116 196.067 92.9951 196.313 93.4251 196.753C93.8551 197.183 94.0803 197.757 94.0701 198.361C93.6299 222.265 86.4943 234.806 71.6088 237.796H54.3585Z" fill="white"/>
<path d="M54.471 234.408C45.1855 233.804 32.9721 229.442 32.7776 199.446H90.6609C89.8931 226.77 79.9933 232.565 71.2709 234.408H54.4813H54.471Z" fill="#E0D7BF"/>
<path d="M101.226 219.01L92.6675 218.528L94.9812 202.742H101.226C105.71 202.742 109.355 206.387 109.355 210.871C109.355 215.355 105.71 218.999 101.226 218.999V219.01ZM95.575 215.621H101.226C103.847 215.621 105.976 213.492 105.976 210.871C105.976 208.25 103.847 206.121 101.226 206.121H97.1925L95.575 215.621Z" fill="#6B4626"/>
<path d="M88.6852 215.55H34.4363C38.1218 231.162 47.1923 233.936 54.461 234.418H71.2506C77.8948 233.015 85.2147 229.309 88.675 215.55H88.6852Z" fill="#6B4626"/>
<path d="M88.6748 215.56C89.3096 213.032 89.8214 210.175 90.1593 206.92H33.1052C33.3919 210.165 33.8423 213.032 34.4361 215.56H88.6748Z" fill="#EDEDED"/>
<path d="M51.6661 183.967C51.6661 185.216 50.6526 186.23 49.4036 186.23C48.1546 186.23 47.1411 185.216 47.1411 183.967V176.586C47.1411 175.337 48.1546 174.323 49.4036 174.323C50.6526 174.323 51.6661 175.337 51.6661 176.586V183.967Z" fill="#6B4626"/>
<path d="M64.6473 179.452C64.6473 180.701 63.6338 181.715 62.3848 181.715C61.1358 181.715 60.1223 180.701 60.1223 179.452V168.262C60.1223 167.014 61.1358 166 62.3848 166C63.6338 166 64.6473 167.014 64.6473 168.262V179.452Z" fill="#6B4626"/>
<path d="M77.7721 183.967C77.7721 185.216 76.7586 186.23 75.5096 186.23C74.2606 186.23 73.2471 185.216 73.2471 183.967V176.371C73.2471 175.122 74.2606 174.108 75.5096 174.108C76.7586 174.108 77.7721 175.122 77.7721 176.371V183.967Z" fill="#6B4626"/>
<circle cx="228" cy="204" r="63" fill="#F9EDD5"/>
<path d="M262.449 198.422C262.51 195.259 259.951 192.679 256.787 192.679H196.785C193.631 192.679 191.011 195.156 191 198.309C190.908 226.473 200.798 240.089 219.256 241.184H236.936C255.088 237.724 262.029 221.712 262.449 198.422Z" fill="#6B4626"/>
<path d="M219.359 237.796C202.466 236.741 194.307 223.832 194.389 198.32C194.389 197.081 195.464 196.067 196.785 196.067H256.787C257.412 196.067 257.995 196.313 258.425 196.753C258.855 197.183 259.08 197.757 259.07 198.361C258.63 222.265 251.494 234.806 236.609 237.796H219.359Z" fill="white"/>
<path d="M219.471 234.408C210.186 233.804 197.972 229.442 197.778 199.446H255.661C254.893 226.77 244.993 232.565 236.271 234.408H219.481H219.471Z" fill="#E0D7BF"/>
<path d="M266.226 219.01L257.667 218.528L259.981 202.742H266.226C270.71 202.742 274.355 206.387 274.355 210.871C274.355 215.355 270.71 218.999 266.226 218.999V219.01ZM260.575 215.621H266.226C268.847 215.621 270.976 213.492 270.976 210.871C270.976 208.25 268.847 206.121 266.226 206.121H262.192L260.575 215.621Z" fill="#6B4626"/>
<path d="M253.685 215.55H199.436C203.122 231.162 212.192 233.936 219.461 234.418H236.251C242.895 233.015 250.215 229.309 253.675 215.55H253.685Z" fill="#6B4626"/>
<path d="M253.675 215.56C254.31 213.032 254.821 210.175 255.159 206.92H198.105C198.392 210.165 198.842 213.032 199.436 215.56H253.675Z" fill="#EDEDED"/>
<path d="M216.666 183.967C216.666 185.216 215.653 186.23 214.404 186.23C213.155 186.23 212.141 185.216 212.141 183.967V176.586C212.141 175.337 213.155 174.323 214.404 174.323C215.653 174.323 216.666 175.337 216.666 176.586V183.967Z" fill="#6B4626"/>
<path d="M229.647 179.452C229.647 180.701 228.634 181.715 227.385 181.715C226.136 181.715 225.122 180.701 225.122 179.452V168.262C225.122 167.014 226.136 166 227.385 166C228.634 166 229.647 167.014 229.647 168.262V179.452Z" fill="#6B4626"/>
<path d="M242.772 183.967C242.772 185.216 241.759 186.23 240.51 186.23C239.261 186.23 238.247 185.216 238.247 183.967V176.371C238.247 175.122 239.261 174.108 240.51 174.108C241.759 174.108 242.772 175.122 242.772 176.371V183.967Z" fill="#6B4626"/>
<circle cx="145" cy="63" r="63" fill="#F9EDD5"/>
<path d="M179.449 57.422C179.51 54.2586 176.951 51.6787 173.787 51.6787H113.785C110.631 51.6787 108.011 54.1562 108 57.3094C107.908 85.4729 117.798 99.0888 136.256 100.184H153.936C172.088 96.7239 179.029 80.7124 179.449 57.422Z" fill="#6B4626"/>
<path d="M136.359 96.7956C119.466 95.7412 111.307 82.8316 111.389 57.3196C111.389 56.0809 112.464 55.0674 113.785 55.0674H173.787C174.412 55.0674 174.995 55.3131 175.425 55.7533C175.855 56.1833 176.08 56.7566 176.07 57.3606C175.63 81.2653 168.494 93.8063 153.609 96.7956H136.359Z" fill="white"/>
<path d="M136.471 93.4075C127.186 92.8035 114.972 88.4423 114.778 58.4463H172.661C171.893 85.7703 161.993 91.5648 153.271 93.4075H136.481H136.471Z" fill="#E0D7BF"/>
<path d="M183.226 78.0097L174.667 77.5285L176.981 61.7422H183.226C187.71 61.7422 191.355 65.3868 191.355 69.8708C191.355 74.3548 187.71 77.9994 183.226 77.9994V78.0097ZM177.575 74.621H183.226C185.847 74.621 187.976 72.4916 187.976 69.8708C187.976 67.25 185.847 65.1206 183.226 65.1206H179.192L177.575 74.621Z" fill="#6B4626"/>
<path d="M170.685 74.5498H116.436C120.122 90.1621 129.192 92.9364 136.461 93.4176H153.251C159.895 92.0151 167.215 88.3091 170.675 74.5498H170.685Z" fill="#6B4626"/>
<path d="M170.675 74.5604C171.31 72.0317 171.821 69.1755 172.159 65.9199H115.105C115.392 69.1652 115.842 72.0317 116.436 74.5604H170.675Z" fill="#EDEDED"/>
<path d="M133.666 42.967C133.666 44.216 132.653 45.2295 131.404 45.2295C130.155 45.2295 129.141 44.216 129.141 42.967V35.5857C129.141 34.3368 130.155 33.3232 131.404 33.3232C132.653 33.3232 133.666 34.3368 133.666 35.5857V42.967Z" fill="#6B4626"/>
<path d="M146.647 38.4521C146.647 39.7011 145.634 40.7146 144.385 40.7146C143.136 40.7146 142.122 39.7011 142.122 38.4521V27.2625C142.122 26.0135 143.136 25 144.385 25C145.634 25 146.647 26.0135 146.647 27.2625V38.4521Z" fill="#6B4626"/>
<path d="M159.772 42.9672C159.772 44.2161 158.759 45.2297 157.51 45.2297C156.261 45.2297 155.247 44.2161 155.247 42.9672V35.3709C155.247 34.1219 156.261 33.1084 157.51 33.1084C158.759 33.1084 159.772 34.1219 159.772 35.3709V42.9672Z" fill="#6B4626"/>
</svg>
