<svg width="203" height="364" viewBox="0 0 203 364" fill="none" xmlns="http://www.w3.org/2000/svg">
<path d="M23.491 284.786H177.749C179.479 284.786 180.881 286.318 180.881 288.209L177.764 357.255C177.764 359.146 176.362 360.678 174.632 360.678H26.1093C24.3795 360.678 22.9772 359.146 22.9772 357.255L20.3589 288.209C20.3589 286.318 21.7612 284.786 23.491 284.786Z" fill="#93633D"/>
<path d="M21.455 213.744H179.785C181.56 213.744 182.999 215.028 182.999 216.613L179.8 274.47C179.8 276.055 178.361 277.339 176.586 277.339H24.1424C22.3669 277.339 20.9276 276.055 20.9276 274.47L18.2402 216.613C18.2402 215.028 19.6796 213.744 21.455 213.744Z" fill="#774D2C"/>
<path d="M18.9761 136.986H182.264C184.095 136.986 185.579 138.389 185.579 140.12L182.28 203.313C182.28 205.043 180.795 206.446 178.964 206.446H21.7477C19.9166 206.446 18.4322 205.043 18.4322 203.313L15.6606 140.12C15.6606 138.389 17.145 136.986 18.9761 136.986Z" fill="#533117"/>
<path d="M163.853 297.617C163.853 296.171 165.025 294.999 166.471 294.999V294.999C167.917 294.999 169.089 296.171 169.089 297.617V328.872C169.089 330.318 167.917 331.49 166.471 331.49V331.49C165.025 331.49 163.853 330.318 163.853 328.872V297.617Z" fill="#FFFCF9"/>
<path d="M165.971 226.575C165.971 225.129 167.143 223.957 168.59 223.957V223.957C170.036 223.957 171.208 225.129 171.208 226.575V257.83C171.208 259.276 170.036 260.448 168.59 260.448V260.448C167.143 260.448 165.971 259.276 165.971 257.83V226.575Z" fill="#FFFCF9"/>
<path d="M168.551 150.027C168.551 148.58 169.723 147.408 171.169 147.408V147.408C172.615 147.408 173.788 148.58 173.788 150.027V181.281C173.788 182.727 172.615 183.9 171.169 183.9V183.9C169.723 183.9 168.551 182.727 168.551 181.281V150.027Z" fill="#FFFCF9"/>
<path d="M163.853 341.406C163.853 339.96 165.025 338.788 166.471 338.788V338.788C167.917 338.788 169.089 339.96 169.089 341.406V347.847C169.089 349.293 167.917 350.465 166.471 350.465V350.465C165.025 350.465 163.853 349.293 163.853 347.847V341.406Z" fill="#FFFCF9"/>
<path d="M165.971 266.072C165.971 264.626 167.143 263.454 168.59 263.454V263.454C170.036 263.454 171.208 264.626 171.208 266.072V269.511C171.208 270.957 170.036 272.13 168.59 272.13V272.13C167.143 272.13 165.971 270.957 165.971 269.511V266.072Z" fill="#FFFCF9"/>
<path d="M168.551 193.026C168.551 191.58 169.723 190.407 171.169 190.407V190.407C172.615 190.407 173.788 191.58 173.788 193.026V195.464C173.788 196.91 172.615 198.082 171.169 198.082V198.082C169.723 198.082 168.551 196.91 168.551 195.464V193.026Z" fill="#FFFCF9"/>
</svg>
