<svg width="203" height="364" viewBox="0 0 203 364" fill="none" xmlns="http://www.w3.org/2000/svg">
<path d="M23.491 284.619H177.749C179.479 284.619 180.881 286.151 180.881 288.041L177.764 357.046C177.764 358.936 176.362 360.468 174.632 360.468H26.1093C24.3795 360.468 22.9772 358.936 22.9772 357.046L20.3589 288.041C20.3589 286.151 21.7612 284.619 23.491 284.619Z" fill="#93633D"/>
<path d="M163.853 297.445C163.853 295.998 165.025 294.826 166.471 294.826C167.917 294.826 169.089 295.998 169.089 297.445V328.678C169.089 330.124 167.917 331.296 166.471 331.296C165.025 331.296 163.853 330.124 163.853 328.678V297.445Z" fill="#FFFCF9"/>
<path d="M163.853 341.208C163.853 339.762 165.025 338.59 166.471 338.59C167.917 338.59 169.089 339.762 169.089 341.208V347.642C169.089 349.088 167.917 350.26 166.471 350.26C165.025 350.26 163.853 349.088 163.853 347.642V341.208Z" fill="#FFFCF9"/>
</svg>
