<svg width="203" height="364" viewBox="0 0 203 364" fill="none" xmlns="http://www.w3.org/2000/svg">
<path d="M180.408 356.57L180.408 356.582V356.593C180.408 360.29 177.411 363.287 173.714 363.287H27.1623C23.4653 363.287 20.4682 360.29 20.4682 356.593V356.583L20.4678 356.573L8.74023 62.3648C8.74023 62.3615 8.74024 62.3582 8.74024 62.355C8.74552 58.6626 11.7405 55.6709 15.4343 55.6709H187.372C191.066 55.6709 194.06 58.6617 194.067 62.3533L180.408 356.57Z" fill="white" stroke="#E8DCC3"/>
<line x1="17.5977" y1="279.877" x2="184.425" y2="279.877" stroke="#E8DCC3" stroke-width="2"/>
<line x1="15.3535" y1="208.479" x2="187.418" y2="208.479" stroke="#E8DCC3" stroke-width="2"/>
<line x1="11.6128" y1="131.413" x2="190.41" y2="131.413" stroke="#E8DCC3" stroke-width="2"/>
<path d="M3.13123 70.0821C1.40343 70.0821 0 68.4579 0 66.4547L3.13123 20.2156C3.13123 18.214 4.53466 16.5898 6.26539 16.5898H12.7507C12.411 12.735 12.232 8.01566 13.3205 7.50679C15.1923 6.63341 99.2658 3.78827 99.2658 3.78827C99.2658 3.78827 181.227 -0.845567 183.678 0.136683C184.833 0.444746 184.415 10.3189 184.031 16.5898H194.46C196.191 16.5898 197.592 18.214 197.592 20.2156L202.023 66.4547C202.023 68.4579 200.621 70.0821 198.89 70.0821H3.13123Z" fill="#60462A"/>
</svg>
