<svg width="203" height="364" viewBox="0 0 203 364" fill="none" xmlns="http://www.w3.org/2000/svg">
<path d="M24.1321 288H178.39C180.12 288 181.522 289.532 181.522 291.421L178.405 360.427C178.405 362.317 177.003 363.848 175.273 363.848H26.7504C25.0206 363.848 23.6183 362.317 23.6183 360.427L21 291.421C21 289.532 22.4023 288 24.1321 288Z" fill="#93633D"/>
<path d="M164.494 300.825C164.494 299.379 165.666 298.207 167.112 298.207V298.207C168.558 298.207 169.73 299.379 169.73 300.825V332.059C169.73 333.505 168.558 334.677 167.112 334.677V334.677C165.666 334.677 164.494 333.505 164.494 332.059V300.825Z" fill="#FFFCF9"/>
<path d="M164.494 344.589C164.494 343.143 165.666 341.971 167.112 341.971V341.971C168.558 341.971 169.73 343.143 169.73 344.589V351.023C169.73 352.469 168.558 353.641 167.112 353.641V353.641C165.666 353.641 164.494 352.469 164.494 351.023V344.589Z" fill="#FFFCF9"/>
<path d="M22.2148 218H180.544C182.32 218 183.759 219.284 183.759 220.867L180.56 278.691C180.56 280.274 179.121 281.558 177.345 281.558H24.9022C23.1267 281.558 21.6874 280.274 21.6874 278.691L19 220.867C19 219.284 20.4393 218 22.2148 218Z" fill="#774D2C"/>
<path d="M166.731 230.825C166.731 229.379 167.903 228.207 169.349 228.207V228.207C170.795 228.207 171.968 229.379 171.968 230.825V262.059C171.968 263.505 170.795 264.677 169.349 264.677V264.677C167.903 264.677 166.731 263.505 166.731 262.059V230.825Z" fill="#FFFCF9"/>
<path d="M166.731 270.299C166.731 268.853 167.903 267.681 169.349 267.681V267.681C170.795 267.681 171.968 268.853 171.968 270.299V273.733C171.968 275.179 170.795 276.351 169.349 276.351V276.351C167.903 276.351 166.731 275.179 166.731 273.733V270.299Z" fill="#FFFCF9"/>
</svg>
