<svg width="203" height="364" viewBox="0 0 203 364" fill="none" xmlns="http://www.w3.org/2000/svg">
<path d="M23.491 284.619H177.749C179.479 284.619 180.881 286.151 180.881 288.041L177.764 357.046C177.764 358.936 176.362 360.468 174.632 360.468H26.1093C24.3795 360.468 22.9772 358.936 22.9772 357.046L20.3589 288.041C20.3589 286.151 21.7612 284.619 23.491 284.619Z" fill="#93633D"/>
<path d="M21.455 213.619H179.785C181.56 213.619 182.999 214.903 182.999 216.486L179.8 274.31C179.8 275.893 178.361 277.177 176.586 277.177H24.1424C22.3669 277.177 20.9276 275.893 20.9276 274.31L18.2402 216.486C18.2402 214.903 19.6796 213.619 21.455 213.619Z" fill="#774D2C"/>
<path d="M18.9761 136.906H182.264C184.095 136.906 185.579 138.308 185.579 140.038L182.28 203.194C182.28 204.923 180.795 206.325 178.964 206.325H21.7477C19.9166 206.325 18.4322 204.923 18.4322 203.194L15.6606 140.038C15.6606 138.308 17.145 136.906 18.9761 136.906Z" fill="#533117"/>
<path d="M163.852 297.445C163.852 295.998 165.025 294.826 166.471 294.826C167.917 294.826 169.089 295.998 169.089 297.445V328.678C169.089 330.124 167.917 331.296 166.471 331.296C165.025 331.296 163.852 330.124 163.852 328.678V297.445Z" fill="#FFFCF9"/>
<path d="M164 225.905C164 224.459 165.172 223.287 166.618 223.287C168.064 223.287 169.237 224.459 169.237 225.905V257.138C169.237 258.584 168.064 259.757 166.618 259.757C165.172 259.757 164 258.584 164 257.138V225.905Z" fill="#FFFCF9"/>
<path d="M166 148.905C166 147.459 167.172 146.287 168.618 146.287C170.064 146.287 171.237 147.459 171.237 148.905V180.138C171.237 181.584 170.064 182.757 168.618 182.757C167.172 182.757 166 181.584 166 180.138V148.905Z" fill="#FFFCF9"/>
<path d="M163.852 341.208C163.852 339.762 165.025 338.59 166.471 338.59C167.917 338.59 169.089 339.762 169.089 341.208V347.642C169.089 349.088 167.917 350.26 166.471 350.26C165.025 350.26 163.852 349.088 163.852 347.642V341.208Z" fill="#FFFCF9"/>
<path d="M164 265.379C164 263.933 165.172 262.76 166.618 262.76C168.064 262.76 169.237 263.933 169.237 265.379V268.812C169.237 270.258 168.064 271.431 166.618 271.431C165.172 271.431 164 270.258 164 268.812V265.379Z" fill="#FFFCF9"/>
<path d="M166 191.879C166 190.433 167.172 189.26 168.618 189.26C170.064 189.26 171.237 190.433 171.237 191.879V194.312C171.237 195.758 170.064 196.931 168.618 196.931C167.172 196.931 166 195.758 166 194.312V191.879Z" fill="#FFFCF9"/>
</svg>
