<svg width="71" height="70" viewBox="0 0 71 70" fill="none" xmlns="http://www.w3.org/2000/svg">
<ellipse cx="35.8324" cy="35" rx="35.1354" ry="35" fill="#FFF8EB"/>
<path d="M50.8439 22.7739V18H21.1593V22.7739H20V32.0679H22.0086L25.1401 52.5954H25.7696L25.9942 56H46.0359L46.2478 52.5954H46.8615L49.993 32.0679H52V22.7739H50.8407H50.8439ZM23.6566 20.4739H48.345V22.7739H38.631L38.6737 24.0524L38.6768 24.1229C38.6594 24.5569 37.8702 25.3449 36.0008 25.3449C34.1314 25.3449 33.3406 24.7167 33.3248 24.126L33.3706 22.7755H23.6566V20.4755V20.4739ZM43.6872 53.5261H28.3333L28.2716 52.5954H43.7458L43.6872 53.5261ZM44.7137 50.1215H27.2879L24.5328 32.0679H47.4688L44.7137 50.1215ZM49.5043 29.5125H22.4957V25.2494H31.0378C31.5787 26.6516 33.1714 27.8204 35.9992 27.8204C38.6468 27.8204 40.3343 26.6328 40.9306 25.2494H49.5027V29.5125H49.5043Z" fill="#875621"/>
</svg>
