<svg width="72" height="73" viewBox="0 0 72 73" fill="none" xmlns="http://www.w3.org/2000/svg">
<ellipse cx="36" cy="36.5" rx="36" ry="36.5" fill="#FFF8EB"/>
<path d="M25.6947 33.9498L26.6611 32.3506C26.6528 32.3456 25.8147 31.8131 25.7313 31.0358C25.6547 30.3098 26.2795 29.5623 26.8178 29.0645C28.0791 27.8969 28.639 26.7095 28.484 25.5353C28.2708 23.9179 26.7861 23.0893 26.6178 23L25.733 24.6455C25.733 24.6455 26.5295 25.1069 26.6195 25.7784C26.7095 26.4548 26.0779 27.1974 25.5347 27.7018C24.2967 28.8479 23.7335 30.0369 23.8618 31.2326C24.0417 32.9212 25.5247 33.8506 25.693 33.9515L25.6947 33.9498ZM33.3079 33.9498L34.2744 32.3506C34.2661 32.3456 33.4279 31.8131 33.3446 31.0358C33.268 30.3098 33.8928 29.5623 34.431 29.0645C35.6924 27.8969 36.2523 26.7095 36.0973 25.5353C35.884 23.9179 34.3994 23.0893 34.2311 23L33.3463 24.6455C33.3463 24.6455 34.1428 25.1069 34.2327 25.7784C34.3227 26.4548 33.6912 27.1974 33.148 27.7018C31.9099 28.8479 31.3467 30.0369 31.475 31.2326C31.655 32.9212 33.138 33.8506 33.3063 33.9515L33.3079 33.9498ZM40.9212 33.9498L41.8877 32.3506C41.8793 32.3456 41.0412 31.8131 40.9579 31.0358C40.8812 30.3098 41.5061 29.5623 42.0443 29.0645C43.3057 27.8969 43.8655 26.7095 43.7106 25.5353C43.4973 23.9179 42.0126 23.0893 41.8443 23L40.9595 24.6455C40.9595 24.6455 41.756 25.1069 41.846 25.7784C41.936 26.4548 41.3045 27.1974 40.7612 27.7018C39.5232 28.8479 38.96 30.0369 39.0883 31.2326C39.2683 32.9212 40.7512 33.8506 40.9195 33.9515L40.9212 33.9498ZM17.2799 62H48.9227V59.3886H17.2799V62ZM56.5293 38.1918C55.2913 36.9035 53.0668 35.8319 49.316 37.4592L49.3193 35.5871H17L17.0117 44.0645C17.0117 48.2585 18.4813 51.8456 21.3823 54.7233C21.9505 55.2872 22.5204 55.866 22.987 56.339C23.9417 57.3065 24.0551 57.4173 24.1984 57.5248L24.5483 57.7828H41.771L42.1209 57.5248C42.2642 57.419 42.3775 57.3082 43.3323 56.339C43.7989 55.866 44.3704 55.2889 44.937 54.7233C45.8717 53.7955 46.6049 52.7834 47.1814 51.7646C54.5131 50.903 56.8342 46.7155 57.4941 44.9361C58.4272 42.419 58.049 39.7712 56.5293 38.1918ZM46.6749 44.0645C46.6749 44.1174 46.6332 49.3451 43.0757 52.876C42.5008 53.4465 41.9243 54.032 41.4511 54.5116C41.2195 54.7464 40.9829 54.9862 40.7996 55.1698H25.5181C25.3348 54.9862 25.0982 54.7464 24.8665 54.5116C24.395 54.032 23.8168 53.4482 23.2419 52.876C20.8541 50.5061 19.6427 47.5408 19.6427 44.0628L19.6344 38.1985H46.6816L46.6732 44.0645H46.6749ZM55.0247 44.0347C54.5798 45.2337 53.0834 47.9046 48.4362 48.9135C49.2893 46.3286 49.3076 44.215 49.3076 44.0678L49.3126 40.3749C51.8087 39.0022 53.55 38.8749 54.6264 39.9945C55.2863 40.6808 55.6912 42.237 55.0247 44.0347Z" fill="#875621"/>
</svg>
