<svg width="70" height="70" viewBox="0 0 70 70" fill="none" xmlns="http://www.w3.org/2000/svg">
<circle cx="35.0001" cy="35" r="35" fill="#FFF8EB"/>
<path d="M17.3364 60H48.9586V56.8363H17.3364V60ZM56.5269 31.1557C55.288 29.5909 53.0567 28.2905 49.295 30.2801L49.2983 28H17L17.0117 38.2706C17.0117 43.3518 18.4804 47.6977 21.3795 51.184C21.9473 51.8673 22.5185 52.5685 22.9847 53.1416C23.9389 54.3137 24.0521 54.4479 24.1953 54.5782L24.545 54.8907H41.7566L42.1063 54.5782C42.2495 54.4499 42.3627 54.3157 43.3169 53.1416C43.7831 52.5685 44.3526 51.8693 44.9205 51.184C45.853 50.062 46.5857 48.8378 47.1618 47.6015C54.5104 46.5657 56.835 41.4844 57.4944 39.3265C58.4269 36.277 58.0489 33.0692 56.5303 31.1557H56.5269ZM46.6573 36.5034H19.6393L19.6327 31.1637H46.6639L46.6573 36.5034ZM55.0233 38.2346C54.5786 39.6892 53.0783 42.9351 48.4124 44.1513C49.2666 41.0176 49.285 38.4529 49.285 38.2726L49.29 33.8145C51.7978 32.1355 53.5446 31.9772 54.6253 33.3377C55.2847 34.1692 55.6893 36.0546 55.0233 38.2325V38.2346Z" fill="#875621"/>
</svg>
