<svg width="86" height="86" viewBox="0 0 86 86" fill="none" xmlns="http://www.w3.org/2000/svg">
<circle cx="43" cy="43" r="43" fill="#60462A"/>
<path d="M36.0745 45.6575C36.0745 42.974 40.095 42.974 40.095 45.6575C40.095 48.3408 36.0745 48.3364 36.0745 45.6575ZM49.9433 45.6575C49.9433 42.974 45.9227 42.974 45.9227 45.6575C45.9223 48.3408 49.9656 48.3364 49.9656 45.6575H49.9433ZM34.6466 41.0994C34.1225 41.3089 33.8676 41.9035 34.0772 42.4276C34.2867 42.9513 34.8813 43.2062 35.4054 42.9967L39.5117 41.3524C40.0357 41.1428 40.2906 40.5482 40.0811 40.0242C39.8715 39.5001 39.2769 39.2455 38.7529 39.4551L34.6466 41.0994ZM50.9912 43.0688C51.4815 43.0701 51.9028 42.7225 51.9958 42.241C52.0884 41.7598 51.8259 41.2805 51.3702 41.0994L47.2548 39.4551C46.7311 39.2455 46.1364 39.5001 45.9269 40.0242C45.7173 40.5482 45.9719 41.1428 46.496 41.3524L50.6022 42.9967C50.7261 43.0455 50.8582 43.0701 50.9912 43.0688ZM49.1795 30.235C49.2671 30.7206 49.2123 31.221 49.0214 31.676L48.7683 32.2858C51.7817 33.6367 54.2255 36.0019 55.6735 38.97C57.1212 41.9378 57.4813 45.32 56.691 48.5262C55.9007 51.7325 54.01 54.5598 51.3488 56.5147C48.6873 58.4697 45.424 59.4283 42.1282 59.2238C38.8324 59.0193 35.7127 57.6643 33.3134 55.3951C30.9144 53.1259 29.3876 50.0866 29 46.807C28.6121 43.5276 29.3879 40.216 31.1917 37.45C32.9954 34.6839 35.713 32.6388 38.8705 31.6714L38.9203 29.5302C35.2104 30.4982 31.9653 32.7535 29.7655 35.894C27.5654 39.0342 26.5539 42.854 26.9112 46.6715C27.2685 50.4889 28.9714 54.055 31.7158 56.7319C34.4604 59.4094 38.0673 61.0235 41.8923 61.2863C45.7176 61.5491 49.5116 60.4434 52.5965 58.1663C55.6811 55.8892 57.8558 52.5897 58.7318 48.857C59.6078 45.1244 59.128 41.2018 57.3781 37.7906C55.6283 34.3792 52.7222 31.7013 49.1795 30.235ZM41.3098 33.6005L42.534 33.9392C42.7934 33.9947 42.9736 34.2304 42.9588 34.4951L42.7373 38.7098C42.7215 38.9726 42.8983 39.208 43.1551 39.2663C43.4116 39.3246 43.6725 39.1885 43.7718 38.9449L47.1373 30.9037C47.2079 30.7351 47.1886 30.5425 47.0853 30.3916C46.9822 30.241 46.8096 30.1531 46.6271 30.1581L44.3097 30.2079C44.1421 30.2114 43.982 30.1367 43.8773 30.0056C43.7727 29.8745 43.7355 29.7018 43.7765 29.5392L45.9313 23.8788C45.9723 23.7162 45.9348 23.5438 45.8301 23.4124C45.7258 23.2813 45.5658 23.2066 45.3981 23.2101H41.6258C41.3548 23.2176 41.1314 23.424 41.1021 23.6935L40.8853 33.0181C40.8563 33.2926 41.0397 33.5441 41.3098 33.6005ZM37.863 55.8493L38.2651 55.7318C41.3595 54.8057 44.6572 54.8057 47.7519 55.7318L48.154 55.8493C48.2009 55.8493 48.2457 55.8307 48.2788 55.7976C48.3115 55.7646 48.3301 55.7198 48.3301 55.6732C48.3301 54.2618 47.7695 52.908 46.7716 51.9101C45.7736 50.9121 44.4199 50.3515 43.0087 50.3515C41.5973 50.3515 40.2436 50.9121 39.2456 51.9101C38.2476 52.908 37.6871 54.2618 37.6871 55.6732C37.6871 55.7198 37.7057 55.7646 37.7388 55.7976C37.7715 55.8307 37.8164 55.8493 37.863 55.8493Z" fill="#F2EBE1"/>
</svg>
