<svg width="86" height="86" viewBox="0 0 86 86" fill="none" xmlns="http://www.w3.org/2000/svg">
<circle cx="43" cy="43" r="43" fill="#FFF8EB"/>
<path d="M51.1769 41.8371H44.1629V34.8231C44.1629 34.1835 43.6396 33.6602 43 33.6602C42.3604 33.6602 41.8371 34.1835 41.8371 34.8231V41.8371H34.8231C34.1835 41.8371 33.6602 42.3604 33.6602 43C33.6602 43.3198 33.791 43.6105 34.0018 43.8213C34.2126 44.0321 34.5033 44.1629 34.8231 44.1629H41.8371V51.1769C41.8371 51.4967 41.9679 51.7874 42.1787 51.9982C42.3895 52.209 42.6802 52.3398 43 52.3398C43.6396 52.3398 44.1629 51.8165 44.1629 51.1769V44.1629H51.1769C51.8165 44.1629 52.3398 43.6396 52.3398 43C52.3398 42.3604 51.8165 41.8371 51.1769 41.8371Z" fill="#875621"/>
</svg>
