<svg width="86" height="86" viewBox="0 0 86 86" fill="none" xmlns="http://www.w3.org/2000/svg">
<circle cx="43" cy="43" r="43" fill="#FFF8EB"/>
<path d="M37.624 28.4971C37.2597 28.4971 36.921 28.6861 36.73 28.9969C35.7304 30.6156 26.9818 44.9667 26.9818 50.4014C26.9082 53.2722 27.9966 56.051 30.0012 58.1076C32.0058 60.1642 34.7557 61.3244 37.6274 61.3244C40.4996 61.3244 43.2494 60.1643 45.2541 58.1076C47.2582 56.051 48.3471 53.272 48.2731 50.4014C48.2731 44.968 39.5241 30.617 38.5249 28.9969C38.331 28.6861 37.9903 28.4971 37.624 28.4971ZM37.624 58.9386C35.3617 58.9351 33.1925 58.0342 31.5935 56.4336C29.9944 54.8331 29.0955 52.6635 29.0935 50.4011C29.0935 46.7129 34.6114 36.6685 37.624 31.5945C40.6223 36.6622 46.162 46.7134 46.162 50.4011C46.158 52.6635 45.2571 54.8321 43.6565 56.4312C42.056 58.0309 39.8864 58.9297 37.624 58.9318V58.9386Z" fill="#875621"/>
<path d="M52.5884 24.4427C52.3945 24.1324 52.0543 23.9434 51.6876 23.9434C51.3232 23.9429 50.9845 24.1324 50.794 24.4427C50.2239 25.3647 45.2686 33.4942 45.2686 36.6687C45.2112 38.4092 45.8622 40.0981 47.0729 41.3495C48.2831 42.601 49.95 43.3075 51.6913 43.3075C53.4324 43.3075 55.0991 42.601 56.3099 41.3495C57.5201 40.0981 58.1716 38.4091 58.1137 36.6687C58.128 33.4873 53.1658 25.3578 52.5884 24.4427ZM51.6876 40.9832C50.5445 40.9812 49.4492 40.5261 48.6416 39.717C47.834 38.9079 47.3803 37.8116 47.3803 36.6685C47.3803 35.0003 49.7453 30.3901 51.688 27.054C53.6377 30.3901 56.0026 35.0003 56.0026 36.6685C55.9992 37.8086 55.5446 38.901 54.7389 39.7082C53.9337 40.5148 52.8417 40.9705 51.7017 40.9764L51.6876 40.9832Z" fill="#875621"/>
<path d="M39.7079 57.0037C40.8862 56.9963 42.014 56.5226 42.8447 55.6865C43.6759 54.8509 44.1418 53.7197 44.1418 52.5414C44.1418 51.9581 43.6689 51.4854 43.0862 51.4854C42.5029 51.4854 42.0301 51.9581 42.0301 52.5414C42.0286 53.164 41.7802 53.761 41.3398 54.2014C40.8994 54.6418 40.3024 54.8902 39.6794 54.8922C39.0966 54.8922 38.6238 55.365 38.6238 55.9477C38.6238 56.531 39.0966 57.0038 39.6794 57.0038L39.7079 57.0037Z" fill="#875621"/>
</svg>
